<svg version="1" xmlns="http://www.w3.org/2000/svg" width="400" height="400" viewBox="0 0 300.000000 300.000000"><path d="M116.1 115.7l-29.9 60 10.8-.1c6-.1 11.3-.6 11.8-1.1.6-.6 9.2-17.4 19.2-37.4l18.3-36.5 8.9 17.8 8.9 17.7 3.9-.2c2.2-.2 4.2 0 4.5.3.4.3-8.2 9.3-18.9 20l-19.5 19.5 30.1 29.9 30.1 29.9h13.8c7.7 0 13.9-.2 13.9-.5s-13.3-13.8-29.5-30L163 175.5l6.9-6.9 6.9-6.9 3.5 7 3.6 7 11-.1c6.1 0 11.1-.2 11.1-.3 0-1-9.4-18.9-10.1-19.4-.5-.3-3.7-.4-7.1-.3l-6.2.3 19.7-19.7c10.8-10.9 19.7-20 19.7-20.2 0-.3-6.2-.6-13.7-.5h-13.7l-4.5 4.5c-8.5 8.5-5.9 11.4-25.7-28.2-9.7-19.4-17.7-35.5-17.9-35.7-.2-.2-13.9 26.7-30.4 59.6z"/></svg>