<?xml version="1.0" encoding="utf-8"?>
<!-- Generator: Adobe Illustrator 23.0.2, SVG Export Plug-In . SVG Version: 6.00 Build 0)  -->
<svg version="1.1" id="レイヤー_1" xmlns="http://www.w3.org/2000/svg" xmlns:xlink="http://www.w3.org/1999/xlink" x="0px"
	 y="0px" viewBox="0 0 238.7 115.7" style="enable-background:new 0 0 238.7 115.7;" xml:space="preserve">
<style type="text/css">
	.st0{fill:#1D1E1E;}
	.st1{fill:#C30D23;}
</style>
<path class="st0" d="M0.4,2.2v113.5h238.3V2.2H0.4z M227.3,104.3H11.7V13.5h215.6V104.3z"/>
<g>
	<path class="st0" d="M102.6,36.2c0-6.3-5.1-11.3-11.3-11.3H68.5V93h11.3V64.5h8.5c1.6,0,2.9,1.3,2.9,2.9V93h11.3V66.9
		c0-3.2-1.3-6-3.4-8.1c2.1-2.1,3.4-4.9,3.4-8.1V36.2z M79.9,53.4V36.2h8.5c1.6,0,2.9,1.3,2.9,2.9v11.3c0,1.6-1.3,2.9-2.9,2.9H79.9z"
		/>
</g>
<g>
	<path class="st0" d="M148,50.6c0,3.2-1.3,6.1-3.4,8.1c2.1,2.1,3.4,4.9,3.4,8.1V93h-11.3V67.4c0-1.6-1.3-2.9-2.9-2.9h-8.5V93h-11.3
		V24.9h11.3v28.5h8.5c1.6,0,2.9-1.3,2.9-2.9V24.9H148V50.6z"/>
</g>
<polygon class="st1" points="159.2,24.9 159.2,93 181.9,93 181.9,81.6 170.6,81.6 170.6,36.2 181.9,36.2 181.9,24.9 "/>
<polygon class="st1" points="216,93 216,24.9 193.3,24.9 193.3,36.2 204.6,36.2 204.6,81.6 193.3,81.6 193.3,93 "/>
<g>
	<path class="st0" d="M45.8,24.9H34.4c-6.3,0-11.3,5.1-11.3,11.3V93h11.3l0-28.5h11.3l0,28.5h11.3V36.2C57.1,30,52,24.9,45.8,24.9z
		 M45.8,53.4H34.4V41.9c0-0.8,0.2-1.6,0.5-2.3c0.9-2,2.9-3.3,5.2-3.3c2.3,0,4.3,1.4,5.2,3.3c0.3,0.7,0.5,1.5,0.5,2.3V53.4z"/>
</g>
<path class="st0" d="M11.7,13.5"/>
</svg>
